<svg xmlns="http://www.w3.org/2000/svg" version="1.1" xmlns:xlink="http://www.w3.org/1999/xlink" xmlns:svgjs="http://svgjs.dev/svgjs" width="1440" height="560" preserveAspectRatio="none" viewBox="0 0 1440 560"><g mask="url(&quot;#SvgjsMask1022&quot;)" fill="none"><rect width="1440" height="560" x="0" y="0" fill="rgba(245, 239, 237, 1)"></rect><path d="M-43.31 386.37L-43.31 386.37" stroke="rgba(51, 51, 51, 1)" stroke-width="1.5"></path><path d="M-43.31 386.37L92.89 352.45" stroke="rgba(51, 51, 51, 1)" stroke-width="1.5"></path><path d="M-43.31 386.37L-109.13 544.81" stroke="rgba(51, 51, 51, 1)" stroke-width="1.5"></path><path d="M-43.31 386.37L85.34 504.98" stroke="rgba(51, 51, 51, 1)" stroke-width="1.5"></path><path d="M-43.31 386.37L232.38 358.2" stroke="rgba(51, 51, 51, 1)" stroke-width="1.5"></path><path d="M-109.13 544.81L-109.13 544.81" stroke="rgba(51, 51, 51, 1)" stroke-width="1.5"></path><path d="M-109.13 544.81L-90.98 691.91" stroke="rgba(51, 51, 51, 1)" stroke-width="1.5"></path><path d="M-109.13 544.81L85.34 504.98" stroke="rgba(51, 51, 51, 1)" stroke-width="1.5"></path><path d="M-109.13 544.81L107.84 654.54" stroke="rgba(51, 51, 51, 1)" stroke-width="1.5"></path><path d="M-90.98 691.91L-90.98 691.91" stroke="rgba(51, 51, 51, 1)" stroke-width="1.5"></path><path d="M-90.98 691.91L107.84 654.54" stroke="rgba(51, 51, 51, 1)" stroke-width="1.5"></path><path d="M-90.98 691.91L85.34 504.98" stroke="rgba(51, 51, 51, 1)" stroke-width="1.5"></path><path d="M-90.98 691.91L198.55 673.56" stroke="rgba(51, 51, 51, 1)" stroke-width="1.5"></path><path d="M-90.98 691.91L-43.31 386.37" stroke="rgba(51, 51, 51, 1)" stroke-width="1.5"></path><path d="M-90.98 691.91L229.1 554.94" stroke="rgba(51, 51, 51, 1)" stroke-width="1.5"></path><path d="M92.89 352.45L92.89 352.45" stroke="rgba(51, 51, 51, 1)" stroke-width="1.5"></path><path d="M92.89 352.45L232.38 358.2" stroke="rgba(51, 51, 51, 1)" stroke-width="1.5"></path><path d="M85.34 504.98L85.34 504.98" stroke="rgba(51, 51, 51, 1)" stroke-width="1.5"></path><path d="M85.34 504.98L107.84 654.54" stroke="rgba(51, 51, 51, 1)" stroke-width="1.5"></path><path d="M85.34 504.98L229.1 554.94" stroke="rgba(51, 51, 51, 1)" stroke-width="1.5"></path><path d="M85.34 504.98L92.89 352.45" stroke="rgba(51, 51, 51, 1)" stroke-width="1.5"></path><path d="M85.34 504.98L198.55 673.56" stroke="rgba(51, 51, 51, 1)" stroke-width="1.5"></path><path d="M107.84 654.54L107.84 654.54" stroke="rgba(51, 51, 51, 1)" stroke-width="1.5"></path><path d="M107.84 654.54L198.55 673.56" stroke="rgba(51, 51, 51, 1)" stroke-width="1.5"></path><path d="M107.84 654.54L229.1 554.94" stroke="rgba(51, 51, 51, 1)" stroke-width="1.5"></path><path d="M232.38 358.2L232.38 358.2" stroke="rgba(51, 51, 51, 1)" stroke-width="1.5"></path><path d="M232.38 358.2L368 410" stroke="rgba(51, 51, 51, 1)" stroke-width="1.5"></path><path d="M232.38 358.2L229.1 554.94" stroke="rgba(51, 51, 51, 1)" stroke-width="1.5"></path><path d="M232.38 358.2L349.55 527.9" stroke="rgba(51, 51, 51, 1)" stroke-width="1.5"></path><path d="M229.1 554.94L229.1 554.94" stroke="rgba(51, 51, 51, 1)" stroke-width="1.5"></path><path d="M229.1 554.94L198.55 673.56" stroke="rgba(51, 51, 51, 1)" stroke-width="1.5"></path><path d="M229.1 554.94L349.55 527.9" stroke="rgba(51, 51, 51, 1)" stroke-width="1.5"></path><path d="M198.55 673.56L198.55 673.56" stroke="rgba(51, 51, 51, 1)" stroke-width="1.5"></path><path d="M368 410L368 410" stroke="rgba(51, 51, 51, 1)" stroke-width="1.5"></path><path d="M368 410L349.55 527.9" stroke="rgba(51, 51, 51, 1)" stroke-width="1.5"></path><path d="M349.55 527.9L349.55 527.9" stroke="rgba(51, 51, 51, 1)" stroke-width="1.5"></path><path d="M349.55 527.9L407.89 659.73" stroke="rgba(51, 51, 51, 1)" stroke-width="1.5"></path><path d="M349.55 527.9L522.9 543.41" stroke="rgba(51, 51, 51, 1)" stroke-width="1.5"></path><path d="M407.89 659.73L407.89 659.73" stroke="rgba(51, 51, 51, 1)" stroke-width="1.5"></path><path d="M407.89 659.73L547.62 678.16" stroke="rgba(51, 51, 51, 1)" stroke-width="1.5"></path><path d="M407.89 659.73L522.9 543.41" stroke="rgba(51, 51, 51, 1)" stroke-width="1.5"></path><path d="M407.89 659.73L229.1 554.94" stroke="rgba(51, 51, 51, 1)" stroke-width="1.5"></path><path d="M407.89 659.73L198.55 673.56" stroke="rgba(51, 51, 51, 1)" stroke-width="1.5"></path><path d="M526.54 393.99L526.54 393.99" stroke="rgba(51, 51, 51, 1)" stroke-width="1.5"></path><path d="M526.54 393.99L522.9 543.41" stroke="rgba(51, 51, 51, 1)" stroke-width="1.5"></path><path d="M526.54 393.99L368 410" stroke="rgba(51, 51, 51, 1)" stroke-width="1.5"></path><path d="M526.54 393.99L642.63 524" stroke="rgba(51, 51, 51, 1)" stroke-width="1.5"></path><path d="M526.54 393.99L709.44 380.31" stroke="rgba(51, 51, 51, 1)" stroke-width="1.5"></path><path d="M522.9 543.41L522.9 543.41" stroke="rgba(51, 51, 51, 1)" stroke-width="1.5"></path><path d="M522.9 543.41L642.63 524" stroke="rgba(51, 51, 51, 1)" stroke-width="1.5"></path><path d="M522.9 543.41L547.62 678.16" stroke="rgba(51, 51, 51, 1)" stroke-width="1.5"></path><path d="M547.62 678.16L547.62 678.16" stroke="rgba(51, 51, 51, 1)" stroke-width="1.5"></path><path d="M547.62 678.16L676.56 705.83" stroke="rgba(51, 51, 51, 1)" stroke-width="1.5"></path><path d="M709.44 380.31L709.44 380.31" stroke="rgba(51, 51, 51, 1)" stroke-width="1.5"></path><path d="M709.44 380.31L800.92 398.86" stroke="rgba(51, 51, 51, 1)" stroke-width="1.5"></path><path d="M709.44 380.31L642.63 524" stroke="rgba(51, 51, 51, 1)" stroke-width="1.5"></path><path d="M642.63 524L642.63 524" stroke="rgba(51, 51, 51, 1)" stroke-width="1.5"></path><path d="M676.56 705.83L676.56 705.83" stroke="rgba(51, 51, 51, 1)" stroke-width="1.5"></path><path d="M676.56 705.83L824.86 683.94" stroke="rgba(51, 51, 51, 1)" stroke-width="1.5"></path><path d="M676.56 705.83L642.63 524" stroke="rgba(51, 51, 51, 1)" stroke-width="1.5"></path><path d="M676.56 705.83L522.9 543.41" stroke="rgba(51, 51, 51, 1)" stroke-width="1.5"></path><path d="M676.56 705.83L854.93 539.81" stroke="rgba(51, 51, 51, 1)" stroke-width="1.5"></path><path d="M676.56 705.83L407.89 659.73" stroke="rgba(51, 51, 51, 1)" stroke-width="1.5"></path><path d="M797.97 204.41L797.97 204.41" stroke="rgba(51, 51, 51, 1)" stroke-width="1.5"></path><path d="M797.97 204.41L800.92 398.86" stroke="rgba(51, 51, 51, 1)" stroke-width="1.5"></path><path d="M797.97 204.41L709.44 380.31" stroke="rgba(51, 51, 51, 1)" stroke-width="1.5"></path><path d="M797.97 204.41L1006.33 222.62" stroke="rgba(51, 51, 51, 1)" stroke-width="1.5"></path><path d="M800.92 398.86L800.92 398.86" stroke="rgba(51, 51, 51, 1)" stroke-width="1.5"></path><path d="M800.92 398.86L854.93 539.81" stroke="rgba(51, 51, 51, 1)" stroke-width="1.5"></path><path d="M854.93 539.81L854.93 539.81" stroke="rgba(51, 51, 51, 1)" stroke-width="1.5"></path><path d="M854.93 539.81L977.64 546.43" stroke="rgba(51, 51, 51, 1)" stroke-width="1.5"></path><path d="M854.93 539.81L824.86 683.94" stroke="rgba(51, 51, 51, 1)" stroke-width="1.5"></path><path d="M854.93 539.81L987.55 404.66" stroke="rgba(51, 51, 51, 1)" stroke-width="1.5"></path><path d="M824.86 683.94L824.86 683.94" stroke="rgba(51, 51, 51, 1)" stroke-width="1.5"></path><path d="M824.86 683.94L1006.53 698.1" stroke="rgba(51, 51, 51, 1)" stroke-width="1.5"></path><path d="M824.86 683.94L977.64 546.43" stroke="rgba(51, 51, 51, 1)" stroke-width="1.5"></path><path d="M962.74 -61.12L962.74 -61.12" stroke="rgba(51, 51, 51, 1)" stroke-width="1.5"></path><path d="M962.74 -61.12L997.4 74.05" stroke="rgba(51, 51, 51, 1)" stroke-width="1.5"></path><path d="M962.74 -61.12L1114.19 -75.38" stroke="rgba(51, 51, 51, 1)" stroke-width="1.5"></path><path d="M997.4 74.05L997.4 74.05" stroke="rgba(51, 51, 51, 1)" stroke-width="1.5"></path><path d="M997.4 74.05L1137.28 65.67" stroke="rgba(51, 51, 51, 1)" stroke-width="1.5"></path><path d="M997.4 74.05L1006.33 222.62" stroke="rgba(51, 51, 51, 1)" stroke-width="1.5"></path><path d="M1006.33 222.62L1006.33 222.62" stroke="rgba(51, 51, 51, 1)" stroke-width="1.5"></path><path d="M1006.33 222.62L1146.24 242.84" stroke="rgba(51, 51, 51, 1)" stroke-width="1.5"></path><path d="M1006.33 222.62L1110.02 361.73" stroke="rgba(51, 51, 51, 1)" stroke-width="1.5"></path><path d="M1006.33 222.62L987.55 404.66" stroke="rgba(51, 51, 51, 1)" stroke-width="1.5"></path><path d="M1006.33 222.62L1137.28 65.67" stroke="rgba(51, 51, 51, 1)" stroke-width="1.5"></path><path d="M987.55 404.66L987.55 404.66" stroke="rgba(51, 51, 51, 1)" stroke-width="1.5"></path><path d="M987.55 404.66L1110.02 361.73" stroke="rgba(51, 51, 51, 1)" stroke-width="1.5"></path><path d="M987.55 404.66L977.64 546.43" stroke="rgba(51, 51, 51, 1)" stroke-width="1.5"></path><path d="M987.55 404.66L1123.92 507.64" stroke="rgba(51, 51, 51, 1)" stroke-width="1.5"></path><path d="M977.64 546.43L977.64 546.43" stroke="rgba(51, 51, 51, 1)" stroke-width="1.5"></path><path d="M977.64 546.43L1123.92 507.64" stroke="rgba(51, 51, 51, 1)" stroke-width="1.5"></path><path d="M977.64 546.43L1006.53 698.1" stroke="rgba(51, 51, 51, 1)" stroke-width="1.5"></path><path d="M1006.53 698.1L1006.53 698.1" stroke="rgba(51, 51, 51, 1)" stroke-width="1.5"></path><path d="M1006.53 698.1L1093.85 676.69" stroke="rgba(51, 51, 51, 1)" stroke-width="1.5"></path><path d="M1006.53 698.1L854.93 539.81" stroke="rgba(51, 51, 51, 1)" stroke-width="1.5"></path><path d="M1006.53 698.1L1123.92 507.64" stroke="rgba(51, 51, 51, 1)" stroke-width="1.5"></path><path d="M1114.19 -75.38L1114.19 -75.38" stroke="rgba(51, 51, 51, 1)" stroke-width="1.5"></path><path d="M1114.19 -75.38L1137.28 65.67" stroke="rgba(51, 51, 51, 1)" stroke-width="1.5"></path><path d="M1114.19 -75.38L997.4 74.05" stroke="rgba(51, 51, 51, 1)" stroke-width="1.5"></path><path d="M1137.28 65.67L1137.28 65.67" stroke="rgba(51, 51, 51, 1)" stroke-width="1.5"></path><path d="M1137.28 65.67L1246.69 71.05" stroke="rgba(51, 51, 51, 1)" stroke-width="1.5"></path><path d="M1137.28 65.67L1146.24 242.84" stroke="rgba(51, 51, 51, 1)" stroke-width="1.5"></path><path d="M1137.28 65.67L962.74 -61.12" stroke="rgba(51, 51, 51, 1)" stroke-width="1.5"></path><path d="M1146.24 242.84L1146.24 242.84" stroke="rgba(51, 51, 51, 1)" stroke-width="1.5"></path><path d="M1146.24 242.84L1110.02 361.73" stroke="rgba(51, 51, 51, 1)" stroke-width="1.5"></path><path d="M1146.24 242.84L1297.46 216.08" stroke="rgba(51, 51, 51, 1)" stroke-width="1.5"></path><path d="M1146.24 242.84L1261.36 395.34" stroke="rgba(51, 51, 51, 1)" stroke-width="1.5"></path><path d="M1146.24 242.84L1246.69 71.05" stroke="rgba(51, 51, 51, 1)" stroke-width="1.5"></path><path d="M1110.02 361.73L1110.02 361.73" stroke="rgba(51, 51, 51, 1)" stroke-width="1.5"></path><path d="M1110.02 361.73L1123.92 507.64" stroke="rgba(51, 51, 51, 1)" stroke-width="1.5"></path><path d="M1110.02 361.73L1261.36 395.34" stroke="rgba(51, 51, 51, 1)" stroke-width="1.5"></path><path d="M1123.92 507.64L1123.92 507.64" stroke="rgba(51, 51, 51, 1)" stroke-width="1.5"></path><path d="M1093.85 676.69L1093.85 676.69" stroke="rgba(51, 51, 51, 1)" stroke-width="1.5"></path><path d="M1304.61 -86.96L1304.61 -86.96" stroke="rgba(51, 51, 51, 1)" stroke-width="1.5"></path><path d="M1304.61 -86.96L1435.66 -62.02" stroke="rgba(51, 51, 51, 1)" stroke-width="1.5"></path><path d="M1304.61 -86.96L1246.69 71.05" stroke="rgba(51, 51, 51, 1)" stroke-width="1.5"></path><path d="M1304.61 -86.96L1114.19 -75.38" stroke="rgba(51, 51, 51, 1)" stroke-width="1.5"></path><path d="M1304.61 -86.96L1137.28 65.67" stroke="rgba(51, 51, 51, 1)" stroke-width="1.5"></path><path d="M1304.61 -86.96L1455.17 82.88" stroke="rgba(51, 51, 51, 1)" stroke-width="1.5"></path><path d="M1246.69 71.05L1246.69 71.05" stroke="rgba(51, 51, 51, 1)" stroke-width="1.5"></path><path d="M1246.69 71.05L1297.46 216.08" stroke="rgba(51, 51, 51, 1)" stroke-width="1.5"></path><path d="M1297.46 216.08L1297.46 216.08" stroke="rgba(51, 51, 51, 1)" stroke-width="1.5"></path><path d="M1297.46 216.08L1445.04 219.03" stroke="rgba(51, 51, 51, 1)" stroke-width="1.5"></path><path d="M1261.36 395.34L1261.36 395.34" stroke="rgba(51, 51, 51, 1)" stroke-width="1.5"></path><path d="M1261.36 395.34L1431.11 379.62" stroke="rgba(51, 51, 51, 1)" stroke-width="1.5"></path><path d="M1261.36 395.34L1123.92 507.64" stroke="rgba(51, 51, 51, 1)" stroke-width="1.5"></path><path d="M1261.36 395.34L1297.46 216.08" stroke="rgba(51, 51, 51, 1)" stroke-width="1.5"></path><path d="M1261.36 395.34L1426.45 492.46" stroke="rgba(51, 51, 51, 1)" stroke-width="1.5"></path><path d="M1282.22 646.21L1282.22 646.21" stroke="rgba(51, 51, 51, 1)" stroke-width="1.5"></path><path d="M1282.22 646.21L1437.21 707.84" stroke="rgba(51, 51, 51, 1)" stroke-width="1.5"></path><path d="M1282.22 646.21L1093.85 676.69" stroke="rgba(51, 51, 51, 1)" stroke-width="1.5"></path><path d="M1282.22 646.21L1123.92 507.64" stroke="rgba(51, 51, 51, 1)" stroke-width="1.5"></path><path d="M1435.66 -62.02L1435.66 -62.02" stroke="rgba(51, 51, 51, 1)" stroke-width="1.5"></path><path d="M1435.66 -62.02L1568.15 -47.5" stroke="rgba(51, 51, 51, 1)" stroke-width="1.5"></path><path d="M1435.66 -62.02L1455.17 82.88" stroke="rgba(51, 51, 51, 1)" stroke-width="1.5"></path><path d="M1435.66 -62.02L1559.19 64.51" stroke="rgba(51, 51, 51, 1)" stroke-width="1.5"></path><path d="M1455.17 82.88L1455.17 82.88" stroke="rgba(51, 51, 51, 1)" stroke-width="1.5"></path><path d="M1455.17 82.88L1559.19 64.51" stroke="rgba(51, 51, 51, 1)" stroke-width="1.5"></path><path d="M1455.17 82.88L1445.04 219.03" stroke="rgba(51, 51, 51, 1)" stroke-width="1.5"></path><path d="M1455.17 82.88L1568.15 -47.5" stroke="rgba(51, 51, 51, 1)" stroke-width="1.5"></path><path d="M1455.17 82.88L1579.39 210.67" stroke="rgba(51, 51, 51, 1)" stroke-width="1.5"></path><path d="M1455.17 82.88L1297.46 216.08" stroke="rgba(51, 51, 51, 1)" stroke-width="1.5"></path><path d="M1445.04 219.03L1445.04 219.03" stroke="rgba(51, 51, 51, 1)" stroke-width="1.5"></path><path d="M1445.04 219.03L1579.39 210.67" stroke="rgba(51, 51, 51, 1)" stroke-width="1.5"></path><path d="M1431.11 379.62L1431.11 379.62" stroke="rgba(51, 51, 51, 1)" stroke-width="1.5"></path><path d="M1431.11 379.62L1426.45 492.46" stroke="rgba(51, 51, 51, 1)" stroke-width="1.5"></path><path d="M1426.45 492.46L1426.45 492.46" stroke="rgba(51, 51, 51, 1)" stroke-width="1.5"></path><path d="M1437.21 707.84L1437.21 707.84" stroke="rgba(51, 51, 51, 1)" stroke-width="1.5"></path><path d="M1437.21 707.84L1601.75 682.66" stroke="rgba(51, 51, 51, 1)" stroke-width="1.5"></path><path d="M1437.21 707.84L1426.45 492.46" stroke="rgba(51, 51, 51, 1)" stroke-width="1.5"></path><path d="M1437.21 707.84L1431.11 379.62" stroke="rgba(51, 51, 51, 1)" stroke-width="1.5"></path><path d="M1437.21 707.84L1093.85 676.69" stroke="rgba(51, 51, 51, 1)" stroke-width="1.5"></path><path d="M1568.15 -47.5L1568.15 -47.5" stroke="rgba(51, 51, 51, 1)" stroke-width="1.5"></path><path d="M1568.15 -47.5L1559.19 64.51" stroke="rgba(51, 51, 51, 1)" stroke-width="1.5"></path><path d="M1568.15 -47.5L1579.39 210.67" stroke="rgba(51, 51, 51, 1)" stroke-width="1.5"></path><path d="M1568.15 -47.5L1304.61 -86.96" stroke="rgba(51, 51, 51, 1)" stroke-width="1.5"></path><path d="M1559.19 64.51L1559.19 64.51" stroke="rgba(51, 51, 51, 1)" stroke-width="1.5"></path><path d="M1559.19 64.51L1579.39 210.67" stroke="rgba(51, 51, 51, 1)" stroke-width="1.5"></path><path d="M1559.19 64.51L1445.04 219.03" stroke="rgba(51, 51, 51, 1)" stroke-width="1.5"></path><path d="M1579.39 210.67L1579.39 210.67" stroke="rgba(51, 51, 51, 1)" stroke-width="1.5"></path><path d="M1579.39 210.67L1577.3 380.47" stroke="rgba(51, 51, 51, 1)" stroke-width="1.5"></path><path d="M1577.3 380.47L1577.3 380.47" stroke="rgba(51, 51, 51, 1)" stroke-width="1.5"></path><path d="M1577.3 380.47L1431.11 379.62" stroke="rgba(51, 51, 51, 1)" stroke-width="1.5"></path><path d="M1577.3 380.47L1426.45 492.46" stroke="rgba(51, 51, 51, 1)" stroke-width="1.5"></path><path d="M1577.3 380.47L1445.04 219.03" stroke="rgba(51, 51, 51, 1)" stroke-width="1.5"></path><path d="M1601.75 682.66L1601.75 682.66" stroke="rgba(51, 51, 51, 1)" stroke-width="1.5"></path><path d="M1601.75 682.66L1426.45 492.46" stroke="rgba(51, 51, 51, 1)" stroke-width="1.5"></path><path d="M1601.75 682.66L1577.3 380.47" stroke="rgba(51, 51, 51, 1)" stroke-width="1.5"></path><path d="M1601.75 682.66L1282.22 646.21" stroke="rgba(51, 51, 51, 1)" stroke-width="1.5"></path><path d="M1601.75 682.66L1431.11 379.62" stroke="rgba(51, 51, 51, 1)" stroke-width="1.5"></path><circle r="5" cx="-43.31" cy="386.37" fill="rgba(51, 51, 51, 1)"></circle><circle r="5" cx="-109.13" cy="544.81" fill="rgba(51, 51, 51, 1)"></circle><circle r="5" cx="-90.98" cy="691.91" fill="rgba(51, 51, 51, 1)"></circle><circle r="5" cx="92.89" cy="352.45" fill="rgba(51, 51, 51, 1)"></circle><circle r="5" cx="85.34" cy="504.98" fill="rgba(51, 51, 51, 1)"></circle><circle r="5" cx="107.84" cy="654.54" fill="rgba(51, 51, 51, 1)"></circle><circle r="5" cx="232.38" cy="358.2" fill="rgba(51, 51, 51, 1)"></circle><circle r="5" cx="229.1" cy="554.94" fill="rgba(51, 51, 51, 1)"></circle><circle r="5" cx="198.55" cy="673.56" fill="rgba(51, 51, 51, 1)"></circle><circle r="5" cx="368" cy="410" fill="rgba(51, 51, 51, 1)"></circle><circle r="5" cx="349.55" cy="527.9" fill="rgba(51, 51, 51, 1)"></circle><circle r="5" cx="407.89" cy="659.73" fill="rgba(51, 51, 51, 1)"></circle><circle r="5" cx="526.54" cy="393.99" fill="rgba(51, 51, 51, 1)"></circle><circle r="5" cx="522.9" cy="543.41" fill="rgba(51, 51, 51, 1)"></circle><circle r="5" cx="547.62" cy="678.16" fill="rgba(51, 51, 51, 1)"></circle><circle r="5" cx="709.44" cy="380.31" fill="rgba(51, 51, 51, 1)"></circle><circle r="5" cx="642.63" cy="524" fill="rgba(51, 51, 51, 1)"></circle><circle r="5" cx="676.56" cy="705.83" fill="rgba(51, 51, 51, 1)"></circle><circle r="5" cx="797.97" cy="204.41" fill="rgba(51, 51, 51, 1)"></circle><circle r="5" cx="800.92" cy="398.86" fill="rgba(51, 51, 51, 1)"></circle><circle r="5" cx="854.93" cy="539.81" fill="rgba(51, 51, 51, 1)"></circle><circle r="5" cx="824.86" cy="683.94" fill="rgba(51, 51, 51, 1)"></circle><circle r="5" cx="962.74" cy="-61.12" fill="rgba(51, 51, 51, 1)"></circle><circle r="5" cx="997.4" cy="74.05" fill="rgba(51, 51, 51, 1)"></circle><circle r="5" cx="1006.33" cy="222.62" fill="rgba(51, 51, 51, 1)"></circle><circle r="5" cx="987.55" cy="404.66" fill="rgba(51, 51, 51, 1)"></circle><circle r="5" cx="977.64" cy="546.43" fill="rgba(51, 51, 51, 1)"></circle><circle r="5" cx="1006.53" cy="698.1" fill="rgba(51, 51, 51, 1)"></circle><circle r="5" cx="1114.19" cy="-75.38" fill="rgba(51, 51, 51, 1)"></circle><circle r="5" cx="1137.28" cy="65.67" fill="rgba(51, 51, 51, 1)"></circle><circle r="5" cx="1146.24" cy="242.84" fill="rgba(51, 51, 51, 1)"></circle><circle r="5" cx="1110.02" cy="361.73" fill="rgba(51, 51, 51, 1)"></circle><circle r="5" cx="1123.92" cy="507.64" fill="rgba(51, 51, 51, 1)"></circle><circle r="5" cx="1093.85" cy="676.69" fill="rgba(51, 51, 51, 1)"></circle><circle r="5" cx="1304.61" cy="-86.96" fill="rgba(51, 51, 51, 1)"></circle><circle r="5" cx="1246.69" cy="71.05" fill="rgba(51, 51, 51, 1)"></circle><circle r="5" cx="1297.46" cy="216.08" fill="rgba(51, 51, 51, 1)"></circle><circle r="5" cx="1261.36" cy="395.34" fill="rgba(51, 51, 51, 1)"></circle><circle r="5" cx="1282.22" cy="646.21" fill="rgba(51, 51, 51, 1)"></circle><circle r="5" cx="1435.66" cy="-62.02" fill="rgba(51, 51, 51, 1)"></circle><circle r="5" cx="1455.17" cy="82.88" fill="rgba(51, 51, 51, 1)"></circle><circle r="5" cx="1445.04" cy="219.03" fill="rgba(51, 51, 51, 1)"></circle><circle r="5" cx="1431.11" cy="379.62" fill="rgba(51, 51, 51, 1)"></circle><circle r="5" cx="1426.45" cy="492.46" fill="rgba(51, 51, 51, 1)"></circle><circle r="5" cx="1437.21" cy="707.84" fill="rgba(51, 51, 51, 1)"></circle><circle r="5" cx="1568.15" cy="-47.5" fill="rgba(51, 51, 51, 1)"></circle><circle r="5" cx="1559.19" cy="64.51" fill="rgba(51, 51, 51, 1)"></circle><circle r="5" cx="1579.39" cy="210.67" fill="rgba(51, 51, 51, 1)"></circle><circle r="5" cx="1577.3" cy="380.47" fill="rgba(51, 51, 51, 1)"></circle><circle r="5" cx="1601.75" cy="682.66" fill="rgba(51, 51, 51, 1)"></circle><path d="M-84.54 693.59L-84.54 693.59" stroke="hsl(48.10000000000002, 50%, 86.2%)" stroke-width="1.5"></path><path d="M-84.54 693.59L-44.45 560.21" stroke="hsl(48.10000000000002, 50%, 86.2%)" stroke-width="1.5"></path><path d="M-84.54 693.59L99.76 640.26" stroke="hsl(48.10000000000002, 50%, 86.2%)" stroke-width="1.5"></path><path d="M-84.54 693.59L64.39 512.68" stroke="hsl(48.10000000000002, 50%, 86.2%)" stroke-width="1.5"></path><path d="M-84.54 693.59L244.05 676.59" stroke="hsl(48.10000000000002, 50%, 86.2%)" stroke-width="1.5"></path><path d="M-84.54 693.59L232.54 554.3" stroke="hsl(48.10000000000002, 50%, 86.2%)" stroke-width="1.5"></path><path d="M-84.54 693.59L354.38 663.32" stroke="hsl(48.10000000000002, 50%, 86.2%)" stroke-width="1.5"></path><path d="M559.02 515.66L559.02 515.66" stroke="hsl(48.10000000000002, 50%, 86.2%)" stroke-width="1.5"></path><path d="M559.02 515.66L673.46 495.24" stroke="hsl(48.10000000000002, 50%, 86.2%)" stroke-width="1.5"></path><path d="M559.02 515.66L487.96 650.15" stroke="hsl(48.10000000000002, 50%, 86.2%)" stroke-width="1.5"></path><path d="M559.02 515.66L396.3 490.1" stroke="hsl(48.10000000000002, 50%, 86.2%)" stroke-width="1.5"></path><path d="M559.02 515.66L698.97 691.4" stroke="hsl(48.10000000000002, 50%, 86.2%)" stroke-width="1.5"></path><path d="M559.02 515.66L787.8 497.12" stroke="hsl(48.10000000000002, 50%, 86.2%)" stroke-width="1.5"></path><path d="M559.02 515.66L354.38 663.32" stroke="hsl(48.10000000000002, 50%, 86.2%)" stroke-width="1.5"></path><path d="M698.97 691.4L698.97 691.4" stroke="hsl(48.10000000000002, 50%, 86.2%)" stroke-width="1.5"></path><path d="M698.97 691.4L856.35 696.89" stroke="hsl(48.10000000000002, 50%, 86.2%)" stroke-width="1.5"></path><path d="M698.97 691.4L673.46 495.24" stroke="hsl(48.10000000000002, 50%, 86.2%)" stroke-width="1.5"></path><path d="M698.97 691.4L787.8 497.12" stroke="hsl(48.10000000000002, 50%, 86.2%)" stroke-width="1.5"></path><path d="M698.97 691.4L487.96 650.15" stroke="hsl(48.10000000000002, 50%, 86.2%)" stroke-width="1.5"></path><path d="M1011.48 495.96L1011.48 495.96" stroke="hsl(48.10000000000002, 50%, 86.2%)" stroke-width="1.5"></path><path d="M1011.48 495.96L1004.3 396.43" stroke="hsl(48.10000000000002, 50%, 86.2%)" stroke-width="1.5"></path><path d="M1011.48 495.96L1121.1 562.32" stroke="hsl(48.10000000000002, 50%, 86.2%)" stroke-width="1.5"></path><path d="M1011.48 495.96L1089.62 355.26" stroke="hsl(48.10000000000002, 50%, 86.2%)" stroke-width="1.5"></path><path d="M1011.48 495.96L854.22 407.36" stroke="hsl(48.10000000000002, 50%, 86.2%)" stroke-width="1.5"></path><path d="M1011.48 495.96L958.63 678.19" stroke="hsl(48.10000000000002, 50%, 86.2%)" stroke-width="1.5"></path><path d="M1607.5 383.49L1607.5 383.49" stroke="hsl(48.10000000000002, 50%, 86.2%)" stroke-width="1.5"></path><path d="M1607.5 383.49L1566.64 493.98" stroke="hsl(48.10000000000002, 50%, 86.2%)" stroke-width="1.5"></path><path d="M1607.5 383.49L1587.44 248.16" stroke="hsl(48.10000000000002, 50%, 86.2%)" stroke-width="1.5"></path><path d="M1607.5 383.49L1437.51 385.04" stroke="hsl(48.10000000000002, 50%, 86.2%)" stroke-width="1.5"></path><path d="M1607.5 383.49L1418.4 521.35" stroke="hsl(48.10000000000002, 50%, 86.2%)" stroke-width="1.5"></path><path d="M1607.5 383.49L1444.68 197.8" stroke="hsl(48.10000000000002, 50%, 86.2%)" stroke-width="1.5"></path><path d="M1566.64 493.98L1566.64 493.98" stroke="hsl(48.10000000000002, 50%, 86.2%)" stroke-width="1.5"></path><path d="M1566.64 493.98L1418.4 521.35" stroke="hsl(48.10000000000002, 50%, 86.2%)" stroke-width="1.5"></path><path d="M1566.64 493.98L1437.51 385.04" stroke="hsl(48.10000000000002, 50%, 86.2%)" stroke-width="1.5"></path><path d="M1566.64 493.98L1607.12 704.27" stroke="hsl(48.10000000000002, 50%, 86.2%)" stroke-width="1.5"></path><path d="M1566.64 493.98L1405.95 654.74" stroke="hsl(48.10000000000002, 50%, 86.2%)" stroke-width="1.5"></path><path d="M-44.45 560.21L-44.45 560.21" stroke="hsl(48.10000000000002, 50%, 86.2%)" stroke-width="1.5"></path><path d="M-44.45 560.21L64.39 512.68" stroke="hsl(48.10000000000002, 50%, 86.2%)" stroke-width="1.5"></path><path d="M-44.45 560.21L99.76 640.26" stroke="hsl(48.10000000000002, 50%, 86.2%)" stroke-width="1.5"></path><path d="M64.39 512.68L64.39 512.68" stroke="hsl(48.10000000000002, 50%, 86.2%)" stroke-width="1.5"></path><path d="M64.39 512.68L99.76 640.26" stroke="hsl(48.10000000000002, 50%, 86.2%)" stroke-width="1.5"></path><path d="M64.39 512.68L232.54 554.3" stroke="hsl(48.10000000000002, 50%, 86.2%)" stroke-width="1.5"></path><path d="M99.76 640.26L99.76 640.26" stroke="hsl(48.10000000000002, 50%, 86.2%)" stroke-width="1.5"></path><path d="M99.76 640.26L244.05 676.59" stroke="hsl(48.10000000000002, 50%, 86.2%)" stroke-width="1.5"></path><path d="M99.76 640.26L232.54 554.3" stroke="hsl(48.10000000000002, 50%, 86.2%)" stroke-width="1.5"></path><path d="M232.54 554.3L232.54 554.3" stroke="hsl(48.10000000000002, 50%, 86.2%)" stroke-width="1.5"></path><path d="M232.54 554.3L244.05 676.59" stroke="hsl(48.10000000000002, 50%, 86.2%)" stroke-width="1.5"></path><path d="M232.54 554.3L354.38 663.32" stroke="hsl(48.10000000000002, 50%, 86.2%)" stroke-width="1.5"></path><path d="M244.05 676.59L244.05 676.59" stroke="hsl(48.10000000000002, 50%, 86.2%)" stroke-width="1.5"></path><path d="M244.05 676.59L354.38 663.32" stroke="hsl(48.10000000000002, 50%, 86.2%)" stroke-width="1.5"></path><path d="M244.05 676.59L396.3 490.1" stroke="hsl(48.10000000000002, 50%, 86.2%)" stroke-width="1.5"></path><path d="M396.3 490.1L396.3 490.1" stroke="hsl(48.10000000000002, 50%, 86.2%)" stroke-width="1.5"></path><path d="M396.3 490.1L232.54 554.3" stroke="hsl(48.10000000000002, 50%, 86.2%)" stroke-width="1.5"></path><path d="M354.38 663.32L354.38 663.32" stroke="hsl(48.10000000000002, 50%, 86.2%)" stroke-width="1.5"></path><path d="M354.38 663.32L487.96 650.15" stroke="hsl(48.10000000000002, 50%, 86.2%)" stroke-width="1.5"></path><path d="M354.38 663.32L396.3 490.1" stroke="hsl(48.10000000000002, 50%, 86.2%)" stroke-width="1.5"></path><path d="M487.96 650.15L487.96 650.15" stroke="hsl(48.10000000000002, 50%, 86.2%)" stroke-width="1.5"></path><path d="M673.46 495.24L673.46 495.24" stroke="hsl(48.10000000000002, 50%, 86.2%)" stroke-width="1.5"></path><path d="M673.46 495.24L787.8 497.12" stroke="hsl(48.10000000000002, 50%, 86.2%)" stroke-width="1.5"></path><path d="M854.22 407.36L854.22 407.36" stroke="hsl(48.10000000000002, 50%, 86.2%)" stroke-width="1.5"></path><path d="M854.22 407.36L787.8 497.12" stroke="hsl(48.10000000000002, 50%, 86.2%)" stroke-width="1.5"></path><path d="M854.22 407.36L1004.3 396.43" stroke="hsl(48.10000000000002, 50%, 86.2%)" stroke-width="1.5"></path><path d="M854.22 407.36L673.46 495.24" stroke="hsl(48.10000000000002, 50%, 86.2%)" stroke-width="1.5"></path><path d="M854.22 407.36L1089.62 355.26" stroke="hsl(48.10000000000002, 50%, 86.2%)" stroke-width="1.5"></path><path d="M787.8 497.12L787.8 497.12" stroke="hsl(48.10000000000002, 50%, 86.2%)" stroke-width="1.5"></path><path d="M787.8 497.12L856.35 696.89" stroke="hsl(48.10000000000002, 50%, 86.2%)" stroke-width="1.5"></path><path d="M787.8 497.12L1011.48 495.96" stroke="hsl(48.10000000000002, 50%, 86.2%)" stroke-width="1.5"></path><path d="M856.35 696.89L856.35 696.89" stroke="hsl(48.10000000000002, 50%, 86.2%)" stroke-width="1.5"></path><path d="M856.35 696.89L958.63 678.19" stroke="hsl(48.10000000000002, 50%, 86.2%)" stroke-width="1.5"></path><path d="M856.35 696.89L1011.48 495.96" stroke="hsl(48.10000000000002, 50%, 86.2%)" stroke-width="1.5"></path><path d="M1004.3 396.43L1004.3 396.43" stroke="hsl(48.10000000000002, 50%, 86.2%)" stroke-width="1.5"></path><path d="M1004.3 396.43L1089.62 355.26" stroke="hsl(48.10000000000002, 50%, 86.2%)" stroke-width="1.5"></path><path d="M1004.3 396.43L1107.44 244.99" stroke="hsl(48.10000000000002, 50%, 86.2%)" stroke-width="1.5"></path><path d="M958.63 678.19L958.63 678.19" stroke="hsl(48.10000000000002, 50%, 86.2%)" stroke-width="1.5"></path><path d="M958.63 678.19L1118.61 655.68" stroke="hsl(48.10000000000002, 50%, 86.2%)" stroke-width="1.5"></path><path d="M1107.44 244.99L1107.44 244.99" stroke="hsl(48.10000000000002, 50%, 86.2%)" stroke-width="1.5"></path><path d="M1107.44 244.99L1089.62 355.26" stroke="hsl(48.10000000000002, 50%, 86.2%)" stroke-width="1.5"></path><path d="M1107.44 244.99L1273.04 87.48" stroke="hsl(48.10000000000002, 50%, 86.2%)" stroke-width="1.5"></path><path d="M1107.44 244.99L1011.48 495.96" stroke="hsl(48.10000000000002, 50%, 86.2%)" stroke-width="1.5"></path><path d="M1089.62 355.26L1089.62 355.26" stroke="hsl(48.10000000000002, 50%, 86.2%)" stroke-width="1.5"></path><path d="M1121.1 562.32L1121.1 562.32" stroke="hsl(48.10000000000002, 50%, 86.2%)" stroke-width="1.5"></path><path d="M1121.1 562.32L1118.61 655.68" stroke="hsl(48.10000000000002, 50%, 86.2%)" stroke-width="1.5"></path><path d="M1121.1 562.32L1306.25 526.13" stroke="hsl(48.10000000000002, 50%, 86.2%)" stroke-width="1.5"></path><path d="M1121.1 562.32L1287.71 666.55" stroke="hsl(48.10000000000002, 50%, 86.2%)" stroke-width="1.5"></path><path d="M1121.1 562.32L958.63 678.19" stroke="hsl(48.10000000000002, 50%, 86.2%)" stroke-width="1.5"></path><path d="M1121.1 562.32L1004.3 396.43" stroke="hsl(48.10000000000002, 50%, 86.2%)" stroke-width="1.5"></path><path d="M1118.61 655.68L1118.61 655.68" stroke="hsl(48.10000000000002, 50%, 86.2%)" stroke-width="1.5"></path><path d="M1118.61 655.68L1287.71 666.55" stroke="hsl(48.10000000000002, 50%, 86.2%)" stroke-width="1.5"></path><path d="M1254.98 -65.15L1254.98 -65.15" stroke="hsl(48.10000000000002, 50%, 86.2%)" stroke-width="1.5"></path><path d="M1254.98 -65.15L1403.49 -67.28" stroke="hsl(48.10000000000002, 50%, 86.2%)" stroke-width="1.5"></path><path d="M1254.98 -65.15L1273.04 87.48" stroke="hsl(48.10000000000002, 50%, 86.2%)" stroke-width="1.5"></path><path d="M1273.04 87.48L1273.04 87.48" stroke="hsl(48.10000000000002, 50%, 86.2%)" stroke-width="1.5"></path><path d="M1273.04 87.48L1395.27 56.34" stroke="hsl(48.10000000000002, 50%, 86.2%)" stroke-width="1.5"></path><path d="M1273.04 87.48L1403.49 -67.28" stroke="hsl(48.10000000000002, 50%, 86.2%)" stroke-width="1.5"></path><path d="M1273.04 87.48L1444.68 197.8" stroke="hsl(48.10000000000002, 50%, 86.2%)" stroke-width="1.5"></path><path d="M1306.25 526.13L1306.25 526.13" stroke="hsl(48.10000000000002, 50%, 86.2%)" stroke-width="1.5"></path><path d="M1306.25 526.13L1418.4 521.35" stroke="hsl(48.10000000000002, 50%, 86.2%)" stroke-width="1.5"></path><path d="M1306.25 526.13L1287.71 666.55" stroke="hsl(48.10000000000002, 50%, 86.2%)" stroke-width="1.5"></path><path d="M1287.71 666.55L1287.71 666.55" stroke="hsl(48.10000000000002, 50%, 86.2%)" stroke-width="1.5"></path><path d="M1287.71 666.55L1405.95 654.74" stroke="hsl(48.10000000000002, 50%, 86.2%)" stroke-width="1.5"></path><path d="M1287.71 666.55L1418.4 521.35" stroke="hsl(48.10000000000002, 50%, 86.2%)" stroke-width="1.5"></path><path d="M1403.49 -67.28L1403.49 -67.28" stroke="hsl(48.10000000000002, 50%, 86.2%)" stroke-width="1.5"></path><path d="M1403.49 -67.28L1395.27 56.34" stroke="hsl(48.10000000000002, 50%, 86.2%)" stroke-width="1.5"></path><path d="M1403.49 -67.28L1562.48 -104.65" stroke="hsl(48.10000000000002, 50%, 86.2%)" stroke-width="1.5"></path><path d="M1403.49 -67.28L1552.72 92" stroke="hsl(48.10000000000002, 50%, 86.2%)" stroke-width="1.5"></path><path d="M1403.49 -67.28L1444.68 197.8" stroke="hsl(48.10000000000002, 50%, 86.2%)" stroke-width="1.5"></path><path d="M1395.27 56.34L1395.27 56.34" stroke="hsl(48.10000000000002, 50%, 86.2%)" stroke-width="1.5"></path><path d="M1395.27 56.34L1444.68 197.8" stroke="hsl(48.10000000000002, 50%, 86.2%)" stroke-width="1.5"></path><path d="M1395.27 56.34L1552.72 92" stroke="hsl(48.10000000000002, 50%, 86.2%)" stroke-width="1.5"></path><path d="M1444.68 197.8L1444.68 197.8" stroke="hsl(48.10000000000002, 50%, 86.2%)" stroke-width="1.5"></path><path d="M1444.68 197.8L1552.72 92" stroke="hsl(48.10000000000002, 50%, 86.2%)" stroke-width="1.5"></path><path d="M1444.68 197.8L1587.44 248.16" stroke="hsl(48.10000000000002, 50%, 86.2%)" stroke-width="1.5"></path><path d="M1437.51 385.04L1437.51 385.04" stroke="hsl(48.10000000000002, 50%, 86.2%)" stroke-width="1.5"></path><path d="M1437.51 385.04L1418.4 521.35" stroke="hsl(48.10000000000002, 50%, 86.2%)" stroke-width="1.5"></path><path d="M1437.51 385.04L1444.68 197.8" stroke="hsl(48.10000000000002, 50%, 86.2%)" stroke-width="1.5"></path><path d="M1437.51 385.04L1306.25 526.13" stroke="hsl(48.10000000000002, 50%, 86.2%)" stroke-width="1.5"></path><path d="M1418.4 521.35L1418.4 521.35" stroke="hsl(48.10000000000002, 50%, 86.2%)" stroke-width="1.5"></path><path d="M1418.4 521.35L1405.95 654.74" stroke="hsl(48.10000000000002, 50%, 86.2%)" stroke-width="1.5"></path><path d="M1405.95 654.74L1405.95 654.74" stroke="hsl(48.10000000000002, 50%, 86.2%)" stroke-width="1.5"></path><path d="M1405.95 654.74L1306.25 526.13" stroke="hsl(48.10000000000002, 50%, 86.2%)" stroke-width="1.5"></path><path d="M1405.95 654.74L1607.12 704.27" stroke="hsl(48.10000000000002, 50%, 86.2%)" stroke-width="1.5"></path><path d="M1562.48 -104.65L1562.48 -104.65" stroke="hsl(48.10000000000002, 50%, 86.2%)" stroke-width="1.5"></path><path d="M1562.48 -104.65L1552.72 92" stroke="hsl(48.10000000000002, 50%, 86.2%)" stroke-width="1.5"></path><path d="M1562.48 -104.65L1395.27 56.34" stroke="hsl(48.10000000000002, 50%, 86.2%)" stroke-width="1.5"></path><path d="M1552.72 92L1552.72 92" stroke="hsl(48.10000000000002, 50%, 86.2%)" stroke-width="1.5"></path><path d="M1552.72 92L1587.44 248.16" stroke="hsl(48.10000000000002, 50%, 86.2%)" stroke-width="1.5"></path><path d="M1587.44 248.16L1587.44 248.16" stroke="hsl(48.10000000000002, 50%, 86.2%)" stroke-width="1.5"></path><path d="M1587.44 248.16L1437.51 385.04" stroke="hsl(48.10000000000002, 50%, 86.2%)" stroke-width="1.5"></path><path d="M1607.12 704.27L1607.12 704.27" stroke="hsl(48.10000000000002, 50%, 86.2%)" stroke-width="1.5"></path><path d="M1607.12 704.27L1418.4 521.35" stroke="hsl(48.10000000000002, 50%, 86.2%)" stroke-width="1.5"></path><path d="M1607.12 704.27L1607.5 383.49" stroke="hsl(48.10000000000002, 50%, 86.2%)" stroke-width="1.5"></path><path d="M1607.12 704.27L1287.71 666.55" stroke="hsl(48.10000000000002, 50%, 86.2%)" stroke-width="1.5"></path><circle r="25" cx="-84.54" cy="693.59" fill="url(&quot;#SvgjsRadialGradient1023&quot;)"></circle><circle r="25" cx="559.02" cy="515.66" fill="url(&quot;#SvgjsRadialGradient1023&quot;)"></circle><circle r="25" cx="698.97" cy="691.4" fill="url(&quot;#SvgjsRadialGradient1023&quot;)"></circle><circle r="25" cx="1011.48" cy="495.96" fill="url(&quot;#SvgjsRadialGradient1023&quot;)"></circle><circle r="25" cx="1607.5" cy="383.49" fill="url(&quot;#SvgjsRadialGradient1023&quot;)"></circle><circle r="25" cx="1566.64" cy="493.98" fill="url(&quot;#SvgjsRadialGradient1023&quot;)"></circle><circle r="5" cx="-44.45" cy="560.21" fill="#eae1bf"></circle><circle r="5" cx="64.39" cy="512.68" fill="#eae1bf"></circle><circle r="5" cx="99.76" cy="640.26" fill="#eae1bf"></circle><circle r="5" cx="232.54" cy="554.3" fill="#eae1bf"></circle><circle r="5" cx="244.05" cy="676.59" fill="#eae1bf"></circle><circle r="5" cx="396.3" cy="490.1" fill="#eae1bf"></circle><circle r="5" cx="354.38" cy="663.32" fill="#eae1bf"></circle><circle r="5" cx="487.96" cy="650.15" fill="#eae1bf"></circle><circle r="5" cx="673.46" cy="495.24" fill="#eae1bf"></circle><circle r="5" cx="854.22" cy="407.36" fill="#eae1bf"></circle><circle r="5" cx="787.8" cy="497.12" fill="#eae1bf"></circle><circle r="5" cx="856.35" cy="696.89" fill="#eae1bf"></circle><circle r="5" cx="1004.3" cy="396.43" fill="#eae1bf"></circle><circle r="5" cx="958.63" cy="678.19" fill="#eae1bf"></circle><circle r="5" cx="1107.44" cy="244.99" fill="#eae1bf"></circle><circle r="5" cx="1089.62" cy="355.26" fill="#eae1bf"></circle><circle r="5" cx="1121.1" cy="562.32" fill="#eae1bf"></circle><circle r="5" cx="1118.61" cy="655.68" fill="#eae1bf"></circle><circle r="5" cx="1254.98" cy="-65.15" fill="#eae1bf"></circle><circle r="5" cx="1273.04" cy="87.48" fill="#eae1bf"></circle><circle r="5" cx="1306.25" cy="526.13" fill="#eae1bf"></circle><circle r="5" cx="1287.71" cy="666.55" fill="#eae1bf"></circle><circle r="5" cx="1403.49" cy="-67.28" fill="#eae1bf"></circle><circle r="5" cx="1395.27" cy="56.34" fill="#eae1bf"></circle><circle r="5" cx="1444.68" cy="197.8" fill="#eae1bf"></circle><circle r="5" cx="1437.51" cy="385.04" fill="#eae1bf"></circle><circle r="5" cx="1418.4" cy="521.35" fill="#eae1bf"></circle><circle r="5" cx="1405.95" cy="654.74" fill="#eae1bf"></circle><circle r="5" cx="1562.48" cy="-104.65" fill="#eae1bf"></circle><circle r="5" cx="1552.72" cy="92" fill="#eae1bf"></circle><circle r="5" cx="1587.44" cy="248.16" fill="#eae1bf"></circle><circle r="5" cx="1607.12" cy="704.27" fill="#eae1bf"></circle></g><defs><mask id="SvgjsMask1022"><rect width="1440" height="560" fill="#ffffff"></rect></mask><radialGradient id="SvgjsRadialGradient1023"><stop stop-color="#ffffff" offset="0.1"></stop><stop stop-color="rgba(212, 195, 126, 1)" offset="0.2"></stop><stop stop-color="rgba(212, 195, 126, 0)" offset="1"></stop></radialGradient></defs></svg>